<svg xmlns="http://www.w3.org/2000/svg" viewBox="0 0 64 64">
  <rect width="64" height="64" rx="12" fill="#ffffff"/>
  <path
    fill="#151922"
    d="M21.1 8.8c2.4-1.1 5.2-.2 6.5 2l5 8.4c1.2 2 .8 4.6-.9 6.2l-4 3.8c-.9.9-1.1 2.3-.4 3.5 1 1.7 2.2 3.3 3.6 4.8 1.5 1.5 3.1 2.8 4.8 3.9 1.1.7 2.6.6 3.5-.4l3.9-3.9c1.7-1.7 4.3-2 6.3-.8l8.2 5.1c2.2 1.4 3 4.2 1.9 6.6l-1.7 3.8c-1.9 4.2-6.6 6.4-11.1 5.2-9-2.4-17.2-7.2-23.9-13.9-6.5-6.7-11.1-14.9-13.4-23.9-1.1-4.4 1.1-9 5.3-10.9l3.9-1.5Z"
  />
  <path
    fill="#129579"
    d="M50.3 7.5c4.3 0 6.9 4.7 4.8 8.4L39.9 44.3c-1.2 2.2-3.9 3-6 1.7l-5.5-3.3 16.9-31.8c1-2.1 2.9-3.4 5-3.4Z"
  />
</svg>
